<?xml version="1.0" encoding="UTF-8"?><svg id="Capa_1" xmlns="http://www.w3.org/2000/svg" xmlns:xlink="http://www.w3.org/1999/xlink" viewBox="0 0 720 720"><defs><style>.cls-1{fill:none;}.cls-2{clip-path:url(#clippath);}.cls-3{fill:#f3fbfe;}.cls-4{fill:#f7d6ab;}.cls-5{fill:#6a6a6a;}.cls-6{fill:#fefefe;}.cls-7{fill:#7d7d7d;}.cls-8{fill:#7f7f7f;}.cls-9{fill:#665a4b;}.cls-10{fill:#665a4a;}.cls-11{fill:#686868;}.cls-12{fill:#747474;}.cls-13{fill:#666;}.cls-14{fill:#caae83;}.cls-15{fill:#dfbf95;}.cls-16{fill:#e1f4fd;}.cls-17{fill:#978368;}.cls-18{fill:#717171;}.cls-19{fill:#646464;}.cls-20{fill:#626262;}.cls-21{fill:#33503f;}</style><clipPath id="clippath"><path class="cls-1" d="M720,360c0,35.8-5.2,70.3-14.9,102.9-44.21,148.7-182.05,257.1-345.1,257.1S58.88,611.35,14.73,462.4h-.03C5.1,429.9-.1,395.6-.1,360-.1,161.2,161.14,0,360,0s360.1,161.2,360,360Z"/></clipPath></defs><path class="cls-21" d="M360.05,0C161.25,0,.05,161.2,.05,360c0,35.6,5.2,69.9,14.8,102.4,16.7-1.7,90.9-9.3,138.3-18.8,53.6-10.7,376.9-13,448.1,4.6,56.3,13.9,91.6,14.9,103.8,14.7,9.7-32.6,14.9-67.1,14.9-102.9C720.05,161.2,558.85,0,360.05,0Z"/><g class="cls-2"><g><g><path class="cls-3" d="M28.68,524.66s-77.06-15.9-1.25-37.31c75.8-21.41,80.65,20.41,80.65,20.41,0,0,39.86-71.05,112.9-1.01,0,0-9.88-21.15,35.31-14.39,0,0,78.55-67.64,169.02,15.15,0,0,26.61-30.11,46.27-5.64,0,0,20.7-23.58,37.47,.82,0,0,46.42-51.85,96.13,2.1,0,0,51.53-28.67,71.05,1.55,0,0,39.82-3.92,44.02,16.35l3.31,17.17s16.74,25.55-11.57,23.49c0,0,31.02,10.29,10.55,44.92-20.46,34.63-54.56,11.3-54.56,11.3,0,0,18.62,49.42-40.15,33.72,0,0,26.62,35.66-10.22,71.85-36.84,36.19-86.59,3.39-86.59,3.39,0,0-5.71,19.1-31.42,7.96,0,0-4.34,44.59-57.57,39.1-53.23-5.49-63.11-37.42-63.11-37.42,0,0-49.8,57.16-134.83,33.38-85.03-23.78-86.46-112.22-86.46-112.22,0,0-35.65,25.65-82.57-26.79-46.92-52.44-11.88-71.86-11.88-71.86,0,0-56.11,19.52-34.5-36.03Z"/><g><path class="cls-16" d="M63.18,560.69l-6.61,6c3.25-4.13,6.61-6,6.61-6Z"/><path class="cls-16" d="M720.26,522.69l3.31,17.17s16.74,25.55-11.57,23.49l-7.51-7.85-50.89,20.5-384.42-24.88-206,9.56s-56.11,19.52-34.5-36.03c0,0-77.06-15.9-1.26-37.31,75.8-21.41,80.65,20.41,80.65,20.41,0,0,39.86-71.05,112.9-1.01,0,0-9.88-21.15,35.31-14.39,0,0,78.55-67.64,169.02,15.15,0,0,26.61-30.11,46.27-5.64,0,0,20.7-23.58,37.47,.82,0,0,46.42-51.85,96.13,2.1,0,0,51.53-28.67,71.05,1.55,0,0,39.82-3.92,44.02,16.35Z"/></g><path class="cls-16" d="M63.18,560.69s-22.74,.87-27.63-10.56c-4.9-11.43,8.93-31.7,8.93-31.7,0,0-27.7,2.48-29.59-11.97-1.89-14.45,78.75-24,90.06,23.58,0,0,68.14-56.58,119.37,1.36,0,0,114.84-73.86,201.65,4.41,0,0,34.85-40.17,83.67-13.38,0,0,64.74-42.3,89.19,16.62,0,0,72.08-48.08,106.11-4.12,0,0,24.35,15.97-.45,20.57,0,0,21.22,65.29-46.42,51.46,0,0-9.89,46.09-86.21,44.42-76.33-1.67-92.69-53.48-92.69-53.48,0,0,54.18,111.29-35.31,108.3-89.49-2.99-65.87-94.33-65.87-94.33,0,0-18.19,125.42-121.58,99.49-103.39-25.93-71.98-97.28-71.98-97.28,0,0-90.75,61.14-121.25-53.41Z"/><path class="cls-3" d="M184.43,614.1s9.56,80.47,100.99,88.65c0,0-69.58-19.02-100.99-88.65Z"/><path class="cls-3" d="M184.43,614.1s-95.28,26.73-111.02-53.88c0,0,24.48,57.13,111.02,53.88Z"/><path class="cls-3" d="M492.72,637.82s6.66,71.66-78.22,46.14c0,0,63.67,7.56,78.22-46.14Z"/><path class="cls-3" d="M572.83,607.04s45.36,35.07,85.24-.07c39.88-35.14-2.65-66.95-2.65-66.95,0,0,30.91,45.84-5.45,61.05-36.36,15.21-77.14,5.97-77.14,5.97Z"/><path class="cls-16" d="M185.84,549.99s.65-29.8,38.6-23.6c37.95,6.2,42.32,41.83,42.32,41.83,0,0-37.71-64.06-80.92-18.23Z"/><path class="cls-16" d="M68.54,548.12s-27.65-7.56-10.93-28.37c16.72-20.82,93.23,30.17,93.23,30.17,0,0-54.94-29.3-76.7-22.61-21.76,6.69-5.6,20.81-5.6,20.81Z"/><path class="cls-16" d="M295.33,532.15s68.72-35.87,126.09,23.69c0,0-40.15-93.84-126.09-23.69Z"/><path class="cls-16" d="M517.9,553.99s78.13-37.02,112.06,6.15c0,0-47.82-72.56-112.06-6.15Z"/></g><g><path class="cls-3" d="M7.89,488.54s-77.06,15.9-1.25,37.31c75.8,21.41,80.65-20.41,80.65-20.41,0,0,39.86,71.05,112.9,1.01,0,0-9.88,21.15,35.31,14.39,0,0,78.55,67.64,169.02-15.15,0,0,26.61,30.11,46.27,5.64,0,0,20.7,23.58,37.47-.82,0,0,46.42,51.85,96.13-2.1,0,0,51.53,28.67,71.05-1.55,0,0,39.82,3.92,44.02-16.35,0,0,24.76,18.68,26.14-6.34,1.38-25.02-22.83-10.84-22.83-10.84,0,0,16.74-25.55-11.57-23.49,0,0,31.02-10.29,10.55-44.92-20.46-34.63-54.56-11.3-54.56-11.3,0,0,18.62-49.42-40.15-33.72,0,0,26.62-35.66-10.22-71.85-36.84-36.19-86.59-3.39-86.59-3.39,0,0-5.71-19.1-31.42-7.96,0,0-4.34-44.59-57.57-39.1-53.23,5.49-63.11,37.42-63.11,37.42,0,0-49.8-57.16-134.83-33.38-85.03,23.78-86.46,112.22-86.46,112.22,0,0-35.65-25.65-82.57,26.79-46.92,52.44-11.88,71.86-11.88,71.86,0,0-56.11-19.52-34.5,36.03Z"/><g><path class="cls-16" d="M42.39,452.52l-6.61-6c3.25,4.13,6.61,6,6.61,6Z"/><path class="cls-16" d="M699.46,490.51s24.76,18.68,26.14-6.34c1.37-25.02-22.83-10.84-22.83-10.84,0,0,16.74-25.55-11.57-23.49l-7.51,7.85-50.89-20.5-384.42,24.88-206-9.56s-56.11-19.52-34.5,36.03c0,0-77.06,15.9-1.26,37.31,75.8,21.41,80.65-20.41,80.65-20.41,0,0,39.86,71.05,112.9,1.01,0,0-9.88,21.15,35.31,14.39,0,0,78.55,67.64,169.02-15.15,0,0,26.61,30.11,46.27,5.64,0,0,20.7,23.58,37.47-.82,0,0,46.42,51.85,96.13-2.1,0,0,51.53,28.67,71.05-1.55,0,0,39.82,3.92,44.02-16.35Z"/></g><path class="cls-16" d="M42.39,452.52s-22.74-.87-27.63,10.56c-4.9,11.43,8.93,31.7,8.93,31.7,0,0-27.7-2.48-29.59,11.97-1.89,14.45,78.75,24,90.06-23.58,0,0,68.14,56.58,119.37-1.36,0,0,114.84,73.86,201.65-4.41,0,0,34.85,40.17,83.67,13.38,0,0,64.74,42.3,89.19-16.62,0,0,72.08,48.08,106.11,4.12,0,0,24.35-15.97-.45-20.57,0,0,21.22-65.29-46.42-51.46,0,0-9.89-46.09-86.21-44.42-76.33,1.67-92.69,53.48-92.69,53.48,0,0,54.18-111.29-35.31-108.3-89.49,2.99-65.87,94.33-65.87,94.33,0,0-18.19-125.42-121.58-99.49-103.39,25.93-71.98,97.28-71.98,97.28,0,0-90.75-61.14-121.25,53.41Z"/><path class="cls-3" d="M163.63,399.1s9.56-80.47,100.99-88.65c0,0-69.58,19.02-100.99,88.65Z"/><path class="cls-3" d="M163.63,399.1s-95.28-26.73-111.02,53.88c0,0,24.48-57.13,111.02-53.88Z"/><path class="cls-3" d="M409.91,411.21s-.9-35.79-55.08-21.33c-54.18,14.46-34.98,44.91-34.98,44.91,0,0,7.61-28.42,37.35-33.47,29.74-5.05,40.05-4.24,52.71,9.89Z"/><path class="cls-3" d="M471.92,375.38s6.66-71.66-78.22-46.14c0,0,63.67-7.56,78.22,46.14Z"/><path class="cls-3" d="M552.03,406.16s45.36-35.07,85.24,.07c39.88,35.14-2.65,66.95-2.65,66.95,0,0,30.91-45.84-5.45-61.05-36.36-15.21-77.14-5.97-77.14-5.97Z"/><path class="cls-16" d="M165.04,463.22s.65,29.8,38.6,23.6c37.95-6.2,42.32-41.83,42.32-41.83,0,0-37.71,64.06-80.92,18.23Z"/><path class="cls-16" d="M47.74,465.09s-27.65,7.56-10.93,28.37c16.72,20.82,93.23-30.17,93.23-30.17,0,0-54.94,29.3-76.7,22.61-21.76-6.69-5.6-20.81-5.6-20.81Z"/><path class="cls-16" d="M274.54,481.06s68.72,35.87,126.09-23.69c0,0-40.15,93.84-126.09,23.69Z"/><path class="cls-16" d="M497.1,459.21s78.13,37.02,112.06-6.15c0,0-47.82,72.56-112.06,6.15Z"/></g><path class="cls-16" d="M725.6,484.18s47.51,36.42,.06,59.47c-47.46,23.05-70.22-36.78-70.22-36.78l48.56-24.63,21.6,1.95Z"/></g></g><g id="yh2eSK.tif"><g><path class="cls-15" d="M172.69,280.82c-.37-3.53-.74-7.07-1.1-10.61-.05,.07-.09,.14-.13,.21-.3,.66,.12,1.48-.25,2.12,.87,2.69,.33,5.63,1.47,8.27Zm130.96-113.7c.88-2.69,1.76-5.39,2.65-8.08-1.72,2.42-2.3,5.21-2.65,8.08Zm-130.96,113.7c-.37-3.53-.74-7.07-1.1-10.61-.05,.07-.09,.14-.13,.21-.3,.66,.12,1.48-.25,2.12,.87,2.69,.33,5.63,1.47,8.27Zm406.77-46c-.2-2.16,.11-4.42-.75-6.51-.18-.13-.37-.19-.58-.17-.02,0-.04,0-.07,.01-.04,0-.07,.01-.11,.03-.57,.32-.95,.83-.85,1.46,.5,3.18-.38,6.25-.74,9.35-2.42,21.06-12.81,37.37-29.62,49.87-.46,.34-.89,.92-1.55,.52-.47-.29-.47-.87-.49-1.38-.02-.51,.03-1.02,.1-1.52,1.31-8.73,1.53-17.54,1.97-26.33,.03-.41,.05-.83,.07-1.24,.09-1.69,.19-3.37,.31-5.05-.9-6.65-.16-13.37-.9-20.05-.36-3.27-.89-6.52-1.09-9.81h0c.03-.47,.02-.93-.02-1.38-.12-1.65-.55-3.26-.78-4.89-1.03-7.37-2.42-14.68-4.37-21.87-.05-.17-.09-.33-.14-.5,0-.02,0-.04,0-.06,.09-1.21-.43-2.28-.73-3.41-2.37-9.11-5.29-18.04-8.87-26.75,0-.02-.02-.05-.03-.07-.21-.53-.42-1.06-.64-1.59h0c-3.8-9.4-8.29-18.46-13.29-27.26-7.92-13.93-17.37-26.79-28.24-38.52-8.3-8.96-17.14-17.42-26.87-24.88-7.38-5.66-14.85-11.2-23.17-15.42,0,0,0,0-.01,0-.42-.21-.83-.42-1.26-.63-.07-.04-.13-.07-.2-.1-5.18-3.41-10.89-5.79-16.4-8.57-2.94-1.48-6.22-2.06-9.18-3.46,0,0-.01,0-.02,0-.29-.13-.55-.28-.82-.42-.14-.08-.29-.15-.43-.21-3.9-1.94-8.18-2.83-12.26-4.27-8.84-3.12-18.07-4.34-27.3-5.57-.56-.08-1.93,.52-1.18-1.08-4.12-.02-8.24,0-12.36-.08-1.82-.04-3.7,.4-5.45-.49h-1.02c-4.08,.42-8.16,.42-12.24,0h-1.02c-.59,.42-1.27,.46-1.95,.45-7.24-.05-14.39,.98-21.52,2.07-19.64,3.04-38.31,9.15-56,18.16-15.74,8.02-30.2,17.94-43.35,29.78-15.64,14.08-29.01,30.02-40.06,47.91-10.37,16.79-18.16,34.73-23.92,53.59-5.77,18.87-9.09,38.17-9.97,57.82-.7,15.62,0,31.22,2.4,46.73,3.52,22.83,9.96,44.75,20.05,65.54,9.28,19.14,20.84,36.77,35.02,52.66,13.03,14.61,27.68,27.33,44.27,37.7,14.4,9,29.77,16,46.06,20.86,21.83,6.52,44.09,9.51,66.88,7.85,2.89-.36,5.8-.16,8.69-.46h.03c.57,.02,1.13,.01,1.71-.03h0s0,0,0,0c2.16-.12,4.3-.56,6.46-.73,6.09-.49,12-1.95,17.85-3.63,.78-.22,1.52-.48,1.89-1.25,.03-.06,.05-.11,.08-.17,.03-.12,.06-.23,.08-.35,.22-1.16-.06-2.29-.29-3.42-2.63-12.79-5.29-25.57-7.95-38.34-2.12-10.2-4.17-20.43-6.38-30.62-.28-1.29-.35-2.85-2.36-2.59-2.05,3.69-4.08,7.4-6.16,11.07-4.88,8.61-9.94,17.11-15.88,25.05-.87,1.16-1.57,2.72-3.44,2.67-.28,.09-.46,.29-.62,.51-.15,.21-.28,.44-.44,.63-.08,.09-.17,.17-.27,.23q-3.55,.41-4.02,4.06c-.17,1.38-.41,2.85-1.94,3.3-1.52,.44-2.29-.89-3.03-1.87-4.23-5.62-8.57-11.16-12.49-17.03-13.05-19.55-22.99-40.58-30.54-62.8-2.21-6.51-3.78-13.22-6.22-19.65-.27-.69-.23-1.3-.03-1.88,.09-.26,.21-.51,.36-.77,0-.02,0-.03,0-.04,.18-1.75,1.25-2.29,2.93-2.42,2.3-.17,4.62-.37,6.83-1.1,.17-.06,.35-.12,.52-.18,.12-.05,.24-.09,.36-.14,.54-.12,1.01-.38,1.6-.44,8.81-1,17.64-1.74,26.5-2.19,.38-.02,.77-.04,1.15-.06h0c.41-.02,.83-.04,1.24-.06h0c4.98-.27,9.95-.59,14.94-.17,7.52,.02,15.05,.03,22.57,.04,1.26-1.55,.94-2.79-.75-3.76-.09,0-.17,0-.25,.02-.06,.01-.11,.02-.16,.04,0,0,0,0,0,0-.27,.08-.5,.23-.73,.42-2.1,1.79-3.27,1.45-4.14-1.18-.21-.64-.32-1.31-.45-1.98-1.28-6.22-2.53-12.43-3.83-18.64-.62-2.95-1.95-4.92-5.03-5.44-14.61-.17-29.21-.21-43.79,.91-4.32,.33-8.63,.66-12.94,1.05-1.85,.17-2.9-.53-3.19-2.41-.38-2.43-.84-4.84-1.27-7.26-1.64,.04-1.6,1.21-1.48,2.32,.15,1.35,.25,2.71,.33,4.07,.07,1.08-.24,2-1.24,2.6-3.85,2.32-7.29,.79-7.89-3.63-1.57-11.7-2.26-23.48-2.74-35.26-.52-12.46,.88-24.85,1.46-37.26,.03-.68,.07-1.42,.55-1.96,.11-.13,.25-.24,.41-.34,.04-.1,.08-.2,.12-.3,1.1-2.57,3.34-2.66,5.7-2.27,1.78,.29,3.49,.42,5.14-.46,8.46,.41,16.92,.75,25.37,1.24,10.48,.62,20.97,1.13,31.48,.82,5.25-.28,10.5-.23,15.75-.43h.11c.57,0,1.13-.02,1.7-.04h.02c2.59-.08,5.17-.3,7.75-.38,8.24-.27,16.46-.91,24.69-1.24,1.13-.05,2.53-.65,3.4,.75,.54,1.53,.97,3.08,1,4.7,.23,11.91,2.1,23.77,1.08,35.73-.49,5.79,2.29,9.65,7.43,12.1,4.05,1.93,7.98,4.1,11.89,6.32,2.7,1.53,5.18,3.53,8.32,4.21,.58-.21,1.2-.38,1.52-.91,.08-.13,.14-.28,.17-.46,.05-.11,.09-.22,.13-.33,.42-1.19,.35-2.44,.37-3.68,.13-6.11-.44-12.21-.42-18.3,.03-12.9-.91-25.77-.61-38.67,.03-1.02,.02-2.06-.38-3.01-.26-.63-.12-1.15,.19-1.69,.03-.05,.06-.09,.08-.13,.15-.25,.32-.49,.49-.73,.36-.5,.76-.96,1.23-1.37,.12-.11,.26-.22,.39-.33,.15-.17,.32-.31,.49-.43,.52-.36,1.12-.53,1.83-.6,1.81-.19,3.59-.66,5.32-1.22,12.07-3.79,24.18-7.46,36.27-11.18,7.87-2.43,15.71-4.94,23.63-7.21,2.74-.79,3.61-.23,4.55,2.49,.41,1.2,.34,2.54,1.14,3.62,1.45,1.04,1.69,2.69,2.1,4.23,5.66,21.36,7.67,43.06,6.15,65.11-.79,11.38-2.53,22.59-5.15,33.69-1.71,7.2-3.78,14.28-6.16,21.28-.67,1.97-.16,3.26,1.57,4.25,6.47,3.72,12.93,7.47,19.4,11.21,4.3,1.46,4.03,1.73,6.32-3.31,.91-2.01,1.54-4.13,2.19-6.24,.99-3.16,2.95-5.43,5.74-7.16,4.9-3.04,9.59-6.37,14.04-10.04,4.87-4,9.19-8.55,12.9-13.61,5.16-7.02,9.49-14.5,10.77-23.35,.3-2.02,.74-4.01,1.1-6.01,0-.01,0-.02,0-.03s0-.03,0-.04c.14-.49,.39-.97,.4-1.46,.16-10.48,.39-20.97-.58-31.42Zm-88.09-73.97c-12.87,5.15-25.96,9.62-39.33,13.29-1.1,.3-2.32,.59-3.51,.16-1.77-5.94-3.42-11.92-5.32-17.82-9.14-28.38-21.9-55.05-38-80.14,.79-1.18,1.67-.34,2.44-.04,5.88,2.31,11.27,5.59,16.57,8.95,15.56,9.89,29.75,21.49,42.29,35.01,9.84,10.61,18.8,21.92,25.48,34.87,.27,.53,.52,1.07,.81,1.59,1.07,1.92,.87,3.2-1.42,4.12Zm-223.48-18.03c-3.53,10.46-6.6,21.05-9.21,31.77-.28,1.13-.92,2.18-1.39,3.26-2.68,.67-5.05-.78-7.58-1.08-.06-.02-.11-.05-.16-.06-2.43-.96-4.98-1.43-7.53-1.96-.63-.23-1.25-.52-1.89-.69-12.2-3.22-24.2-7.04-36.11-11.18-2.69-.94-5.57-1.52-7.87-3.4,.15-.67,.31-1.34,.46-2.01,2.91-4.41,5.81-8.82,8.72-13.23,1.97-2.77,4.5-5.13,6.07-8.19,1.87-2.49,4.39-4.44,5.98-7.16,1.59-2.45,3.95-4.15,5.92-6.24,7.43-7.83,15.44-15.01,24.13-21.42,15.19-11.19,33.13-20.43,51.02-26.48q-1.09,2.32-1.52,3.12c-2.48,4.73-5.09,9.4-7.54,14.14-8.49,16.37-15.6,33.34-21.49,50.82Zm-60.07,223.53c-.33-.26-.65-.53-.98-.79-.38-2.4-2.2-3.96-3.42-5.86-2.33-3.59-2.38-3.6,1.57-4.93,5.86-1.98,11.7-4.01,17.6-5.84,11.24-3.49,22.59-6.59,34.13-8.97,2.16,.32,2.41,2.22,2.93,3.75,1.84,5.37,3.65,10.77,5.34,16.19,7.06,22.68,16.71,44.24,28.05,65.07,.73,1.34,1.33,2.75,1.96,4.14,.45,.99,.22,1.64-.99,1.71-2.67-1.06-5.37-2.07-8.02-3.19-9.75-4.15-19.04-9.22-28.1-14.7-3.41-2.39-6.81-4.78-10.22-7.17-2.08-1.66-4.15-3.33-6.23-4.99-1.18-1.03-2.36-2.06-3.54-3.09-1.14-1.46-2.67-2.45-4.12-3.53-4.42-4.42-8.84-8.84-13.26-13.25-2.61-3.78-6.45-6.46-9.11-10.2l-3.6-4.36Zm-23.55-43.32c-3.14-7.54-5.51-15.35-7.58-23.24-1.34-6.32-2.68-12.65-4.01-18.97-.37-3.53-.74-7.07-1.1-10.61-.6-6.47-.98-12.94-1.02-19.44,.42-8.72,1.33-17.39,2.53-26.03,.32-2,.56-4.01,.99-5.98,1.33-6.01,2.74-12,4.12-18,1.22-3.54,1.81-7.31,3.63-10.64,4.62,.57,8.72,2.79,13.06,4.23,16.78,5.57,33.84,10.17,50.85,14.94,5.73,1.61,6.47,2.7,5.79,8.5-1.85,15.98-2.33,32.01-1.81,48.06,.39,11.87,1.14,23.73,2.79,35.51,.59,4.28,.42,4.65-3.88,5.96-19.74,6.04-39.49,12.04-59.25,18.04-3.16,.96-3.87,.67-5.12-2.32Zm147.51-133.97c-5.03-.37-10.04-.59-15.05-1.37-5.82-.9-11.74-1.31-17.59-2.19-.37-.68-.46-1.34-.26-2.16,1.36-5.47,3-10.87,4.76-16.22,.88-2.69,1.76-5.39,2.65-8.08,.15-.36,.31-.72,.45-1.07,1.7-4.6,3.39-9.2,5.09-13.8,6.65-15.82,14.29-31.13,23.4-45.69,4.32-6.9,9.37-14.98,14.55-21.28,.83-.03,1.91,2.48,2.7,3.65,4.73,6.95,9.04,14.18,13.1,21.55,13.41,24.31,23.26,50.02,30.12,76.91,1.66,6.51,1.64,6.46-5.01,7.26-10.7,1.3-21.45,1.9-32.2,2.69-8.95,.65-17.8-.46-26.71-.19Zm-159.1,91.76c-.37-3.53-.74-7.07-1.1-10.61-.05,.07-.09,.14-.13,.21-.3,.66,.12,1.48-.25,2.12,.87,2.69,.33,5.63,1.47,8.27Zm130.96-113.7c.88-2.69,1.76-5.39,2.65-8.08-1.72,2.42-2.3,5.21-2.65,8.08Zm-130.96,113.7c-.37-3.53-.74-7.07-1.1-10.61-.05,.07-.09,.14-.13,.21-.3,.66,.12,1.48-.25,2.12,.87,2.69,.33,5.63,1.47,8.27Z"/><path class="cls-4" d="M350.11,32.5c-4.08,.83-8.16,.83-12.24,0h12.24Z"/><path class="cls-15" d="M497.08,493.5c-1.15,.27-1.65-.49-2.2-1.3-9.3-13.76-18.61-27.52-27.91-41.28-.86-1.28-1.85-2.43-3.15-3.27-3.85-4.42-6.67-9.57-10.08-14.31-.71-.99-1.22-2.33-2.83-2.15-1.76,.57-2.8,1.93-3.57,3.45-5.34,10.61-12.13,20.36-18.16,30.56-2.11,3.58-4.27,7.14-6.49,10.65-1.31,2.06-.93,2.7,1.54,2.67,2.37-.03,4.73,.25,7.1,.2,1.03-.06,2.01-.03,2.46,1.14-4.63,.89-9.3,.35-13.96,.38-1.54,0-1.71-1.37-1.96-2.56-2.69-13.06-5.38-26.13-8.09-39.19-10.62-51.33-21.25-102.66-31.88-153.98-.09-.42-.14-.84-.25-1.25-.62-2.23,.13-3.24,2.49-2.84,.29,.41,.61,.75,1.09,1.02,23.52,13.6,46.95,27.37,70.41,41.07,28.74,16.79,57.54,33.49,86.18,50.44,5.49,3.25,10.85,5.24,17.24,4.67,3.71-.33,7.47-.13,11.21,0,1.11,.04,2.51-.2,2.84,1.47-.58,1.78-2.15,1.43-3.42,1.45-5.51,.11-11.03,.07-16.54,.03-2.41-.02-4.7,.4-6.99,1.1-14.12,4.29-28.2,8.71-42.32,12.97-1.98,.6-4.34,.1-5.89,1.95-1.11,.42-.78,1.44-.9,2.26-.35,.66-.24,1.26,.26,1.8,4.45,4.86,7.61,10.64,11.32,16.02,9.44,13.68,18.78,27.43,28.03,41.24,1.59,2.38,3.42,3.43,6.3,3.35,5.51-.16,11.03-.09,16.54-.01,1.21,.02,2.62-.29,3.41,1.13-.11,2.08-1.76,1.77-3.01,1.8-5.08,.12-10.17,.21-15.25,0-3.78-.16-6.79,.9-9.75,3.32-9.57,7.83-19.26,15.5-28.92,23.22-1.51,1.21-3.22,1.95-4.9,2.79Z"/><path class="cls-4" d="M538.8,195.2c-2.78-10.18-6.05-20.19-9.7-30.09,.06-.25,.22-.47,.28-.71,1.79-7.88,2.41-15.84,.37-23.72-.65-2.52-2.25-4.86-3.37-7.31-.46-1.01-1.02-1.92-1.04-3.07-.02-1.13-.25-2.19-1.12-3.01-.25-.23-.54-.5-.58-.82-.84-6.59-6.15-10.68-8.99-16.15-1.79-3.44-4.18-6.33-7.41-8.53-.98-.67-1.66-1.7-2.14-2.81-1.04-2.41-2.68-4.4-4.74-5.89-3.44-2.48-5.96-5.99-9.6-8.23-3.65-2.25-7.07-4.84-10.63-7.24-2.23-1.5-4.64-2.7-6.75-4.39-3.2-2.57-7.15-3.84-10.66-5.88-5.09-2.95-10.77-4.45-16.12-6.77-2.55-1.11-5.25-1.9-7.83-2.97-.81-.34-1.64-.34-2.48-.1-1.96-.99-3.94-1.95-5.89-2.96-6.71-3.46-13.53-6.68-20.62-9.31-.66-1.82,.63-1.77,1.75-1.78,2.55-.03,5.09,.07,7.6,.59,7.2,1.5,14.39,3.13,21.36,5.47,8.73,2.93,17.06,6.86,25.16,11.24,.82,.44,1.62,.92,2.52,1.2,4.42,2.07,8.35,4.95,12.49,7.5,2.5,1.59,4.95,3.26,7.33,5.03,1.97,1.65,4.22,2.95,6.1,4.72,2.66,1.74,4.92,3.99,7.5,5.84,0,.13,0,.25-.02,.38,2.24,1.08,3.72,3.08,5.55,4.65,3.24,2.79,6.46,5.63,9.3,8.86,2.92,3.55,5.89,7.06,8.93,10.5,2.19,2.47,3.81,5.32,5.73,7.97,4.32,5.96,8.26,12.14,10.67,19.16,1.13,3.28,2.41,6.5,3.82,9.67,.83,1.87,.94,3.91,1.19,5.94,.54,4.35,1.16,8.7,1.86,13.03,.29,1.79,.5,3.44-.24,5.21-1.01,2.41-.21,5.03-.46,7.56-.32,3.31-1.67,6.19-2.77,9.18-.78,2.14-1.84,4.14-2.23,6.46-.42,2.48-2.2,3.07-4.12,1.61Z"/><path class="cls-4" d="M568.92,378.84c-6.37,0-12.74-.15-19.1,.03-3.03,.08-5.6-.72-8.16-2.22-28.11-16.47-56.26-32.89-84.38-49.35-18.16-10.63-36.29-21.32-54.44-31.97-7.54-4.42-15.1-8.81-22.68-13.15-1.29-.74-1.57-1.16-.01-1.76,2.06-.03,4.12-.07,6.19-.1,9.82,6.19,19.86,12.02,29.91,17.82,2.2,1.27,4.48,1.76,6.99,1.96,4.18,.32,8.48-.08,12.49,1.64,4.02,1.22,7.39,3.73,11.03,5.68,8.4,4.75,16.58,9.86,24.28,15.7,6.09,4.62,12.11,9.32,17.31,14.98,3.13,3.4,6.64,6.26,10.74,8.47,5.08,2.74,10,5.77,15.02,8.63,1.35,.77,2.76,1.41,4.32,1.39,4.42-.04,8.79,.65,13.22,.65,3.34,0,6.76,.07,9.98,1.33,10.8,4.16,20.48,10.52,30.74,15.73,1.65,.84,3.35,1.58,4.87,2.68,1.57,1.14,1.25,1.8-.41,2.31-1.71,.14-3.38,.5-5.09,.59-1.09,.05-2.13,.02-2.79-1.04Z"/><path class="cls-4" d="M558.72,462.48c-7.22,0-14.44-.05-21.65,.02-1.98,.02-3.29-.64-4.42-2.32-13.33-19.68-26.73-39.32-40.11-58.97-.43-.63-.99-1.24-1.18-1.95-.26-.92,.56-.49,.97-.54,1.33-1.05,2.3,.06,3.12,.73,5.79,4.79,11.66,9.48,17.27,14.47,2.37,2.1,4.59,4.62,8.22,4.47,5.72,1.25,11.64,1.82,16.87,4.77,1.81,1.06,2.91,2.92,4.65,4.06,2,1.98,3.47,4.36,4.99,6.7,.89,2.79,3.15,4.66,4.8,6.92,2.02,2.77,3.78,5.73,6.11,8.27,2.38,3.52,5.18,6.73,7.41,10.36,.26,.43,.63,.78,1.16,.89,.53,.8,1.34,1.56,.32,2.55-1.93,.06-3.73,1.02-5.71,.76-1.07-.14-2.19-.06-2.82-1.2Z"/><path class="cls-4" d="M545.94,254.37c-.83-10.19-.49-20.46-2.03-30.6,3.52-3.06,5.74-6.98,7.84-11.1,2.7-5.28,3.97-10.98,5.74-16.55,.21-.65,.36-1.31,.39-2,.38-8.79,1.06-17.6-.94-26.28-1.41-6.12-3.19-12.15-5.75-17.91-.69-1.56-1.04-3.23-1.71-4.79-.33-.77-.28-1.49,.4-2.08,.27-.14,.52-.11,.75,.08,1.58,2.07,2.72,4.4,3.97,6.66-.23,.55,.12,1,.34,1.42,5.1,9.57,9.22,19.56,13.05,29.68,.3,.85,.6,1.7,.89,2.55-.17,.61,.06,1.17,.25,1.73,2.78,8.08,3.94,16.42,3.52,24.92-.65,13.23-4.32,25.45-12.41,36.2-2.6,3.45-4.76,7.21-7.71,10.42-1.04,1.14-2.13,2.19-3.44,2.99-1.85,1.13-3.12,.56-3.35-1.62-.13-1.23-.34-2.52,.19-3.75Z"/><path class="cls-15" d="M545.94,254.37c0,.17-.02,.34,0,.51,.17,1.45-.63,3.53,1.1,4.1,1.61,.53,2.93-1.15,3.89-2.34,5.2-6.46,10.4-12.93,14.04-20.47,2.18-4.52,4.18-9.25,5-14.1,1.23-7.2,2.17-14.53,1.15-21.95-.7-5.08-.26-10.33-2.46-15.18-.22-.49-.04-1,.22-1.46,2.99,7.9,4.82,16.12,6.7,24.33,.13,.57,.27,1.14,.41,1.72-.07,3.79,1.23,7.4,1.52,11.13,.2,2.56,1.31,5.07,.55,7.7,1.18,5.76-.49,11.31-1.35,16.89-1.45,9.39-5.39,17.9-10.69,25.66-3.08,4.51-6.72,8.66-10.66,12.58-2.95,2.94-6.85,4.73-9.3,8.17-.38,.53-.96,1.09-1.72,.86-.92-.28-.85-1.17-.93-1.91-.28-2.56,.24-5.08,.5-7.61,.9-8.78,1.76-17.57,1.52-26.41-.02-.77,.09-1.53,.5-2.21Z"/><path class="cls-4" d="M348.63,432.78c-.29,.29-.62,.87-.86,.84-2.64-.38-2.88,1.17-2.8,3.19,.09,2.21-1.47,3.52-2.91,4.85-.9,.84-1.48,.23-2.08-.5-6.47-7.88-12.48-16.09-17.96-24.69-12.96-20.33-22.55-42.21-29.77-65.16-1.43-4.54-2.67-9.13-3.92-13.72-.19-.69-1.14-1.84,.57-2.12,1.58-.21,2.24,.93,2.92,2.01,6.35,9.94,11.97,20.32,17.84,30.54,2.79,4.86,5.33,9.84,7.7,14.91,.35,.76,.62,1.59,1.36,2.11,.7,.93,.91,2.16,1.81,2.98,.17,.28,.34,.56,.52,.83,1.17,1.7,1.89,3.67,3.2,5.28,.62,.89,1.21,1.81,1.38,2.91,1.55,2.14,2.5,4.65,4.09,6.76v-.02c1.53,2.98,3.52,5.69,5.31,8.52,2.23,2.95,3.84,6.32,6.19,9.2,2.05,3.01,4.26,5.9,6.44,8.82,.56,.75,1.34,1.37,.95,2.47Z"/><path class="cls-4" d="M550.02,143.19c2.94,7.22,5.83,14.48,7.72,22.05,1.13,4.55,2.37,9.22,1.56,14.04-.06,.33-.13,.7-.04,1.01,.93,3.27,.15,6.51,.03,9.78-.27,7.76-2.72,14.82-5.77,21.84-1.73,3.99-4.03,7.51-6.52,11-.89,1.24-1.87,1.26-3.09,.86-1.07-8.26-2.44-16.46-4.35-24.57-.31-1.32-.5-2.66-.75-4,1.85,.4,2.85-.55,2.97-2.23,.28-3.85,2.6-6.95,3.74-10.48,.94-2.89,.92-5.73,1.18-8.61,.07-.81-.29-1.7,0-2.51,1.9-5.26-.09-10.32-.91-15.4-.48-2.99,.02-6.07-1.27-9.02-2.52-5.71-4.26-11.82-7.21-17.28-3.16-5.84-6.57-11.61-10.71-16.89-3.24-4.14-6.2-8.49-10.05-12.11-.52-.49-.64-1.18-.69-1.87,1.88,.24,2.39,2.14,3.71,3.05,.62,.15,1.05,.53,1.37,1.06,.88,2.46,3.34,3.57,4.74,5.58,1.7,.81,2.47,2.45,3.46,3.89,2.61,3.94,5.91,7.36,8.65,11.19,4.12,5.77,7.93,11.75,11.67,17.77,.33,.53,.85,1.09,.56,1.85Z"/><path class="cls-10" d="M558.72,462.48c2.84,.22,5.73-.56,8.53,.44-11.95,8.83-23.97,17.55-35.79,26.56-3.44,2.63-6.94,3.82-11.22,3.76-7.72-.1-15.45,.15-23.17,.25,3.16-3.59,7.19-6.16,10.85-9.15,7.94-6.48,15.99-12.84,23.96-19.29,1.79-1.45,3.66-2.15,6.03-2.11,5.76,.11,11.53-.02,17.3-.07,1.18-.01,2.38,.11,3.51-.39Z"/><path class="cls-10" d="M434.65,211.45c4.1-1.87,8.5-2.84,12.78-4.17,18.78-5.83,37.59-11.57,56.39-17.33,3.25-1,3.34-1.02,4.39,2.3,.55,1.74,2.01,3.51,.45,5.46-11.36,3.15-22.72,6.3-34.08,9.47-4.74,1.32-9.45,2.76-14.21,3.99-2.43,.63-3.4,1.76-3.33,4.43,.6,20.53,1.05,41.06,1.5,61.59,.03,1.48,.74,3.34-1.3,4.25-1.88,.32-3.81,.8-4.97-1.42-.59-5.15-1.34-10.29-.95-15.49,1.24-.86,1.49-2.12,1.55-3.55,.08-1.87-.08-3.74-.2-5.58-.51-7.45,.03-14.91-.61-22.35-.41-4.74-.13-9.49-.2-14.24-.07-4.74-.76-5.47-5.45-5.51-3.05-.02-6.11,.08-9.16-.08-1.18-.06-2.47-.11-2.61-1.77Z"/><path class="cls-10" d="M541.34,359.42c-6.97-1.12-14.03-1.05-21.06-1.39-2.7-.13-5.14-.64-7.48-2.04-5.97-3.57-12.03-7-18.02-10.53-1.16-.68-2.37-1.43-3.26-2.41-11.26-12.49-24.96-21.9-38.88-31.03-2.06-1.35-4.11-2.7-6.17-4.04-.33-.26-.68-.58-.46-.99,.22-.4,.66-.39,1.04-.11,12.05,6.44,24.11,12.86,36.14,19.32,16.9,9.07,33.78,18.17,50.67,27.27,3.36,1.81,6.72,3.63,10.08,5.44-.63,1.38-1.66,.75-2.61,.53Z"/><path class="cls-15" d="M526.58,337.48c3.11,.85,4.24-.94,5-3.54,.68-2.36,1.68-4.62,2.48-6.95,1.09-3.19,3.19-5.43,6.01-7.27,7.39-4.79,14.55-9.8,20.67-16.34,6.19-6.61,11.14-13.88,14.55-22.17,1.77-4.29,3.09-8.78,3.84-13.4,.01-.08,.07-.22,.1-.21,.14,.01,.27,.06,.4,.1-.42,9.3-1.32,18.53-3.54,27.59-1.86,8.05-5.64,15.16-10.7,21.62-5.01,6.4-11.09,11.62-17.86,16.08-.64,.42-1.4,.7-1.9,1.26-3.72,4.14-8.43,5.18-13.72,4.55-.57-.07-1.19-.14-1.74,.17-1.33-.18-2.5-.75-3.61-1.49Z"/><path class="cls-10" d="M433.78,479.86c-1-.04-2-.08-3-.12-1.59-1.36-.62-2.85-.06-4.17,1.95-4.61,3.69-9.3,5.64-13.9,2.78-6.56,5.23-13.24,7.79-19.88,1.79-4.65,3.91-9.17,6.49-13.45,1.11,.16,1.76,.95,2.34,1.78,3.52,5.14,7.01,10.31,10.53,15.45,.46,.68,.76,1.31,.31,2.09-6.23,9.36-12.59,18.64-18.63,28.13-1.92,3.01-4.05,4.53-7.6,4.05-1.24-.17-2.53,.01-3.8,.03Z"/><path class="cls-10" d="M537.77,424.23c-4.68-2.22-9.73-3.09-14.78-3.94-.9-.15-1.79-.4-2.68-.61,.7-1.76,2.24-1.11,3.5-1.19,1.8-.11,2.46-.98,1.33-2.13-3.99-4.04-6.41-9.17-9.66-13.71-2.84-3.98-6.52-5.09-10.92-5.22-2.8-.08-5.61,.05-8.4-.07-1.32-.06-2.8,0-3.28-1.73,6.73-2.6,13.72-4.34,20.58-6.51,9.46-2.99,18.97-5.78,28.44-8.73,2.29-.71,4.57-1.13,6.98-1.11,5.51,.05,11.02-.02,16.53-.06,1.18,0,2.38,.11,3.51-.39,2.88-.02,5.76-.05,8.63-.07,.59-.22,1.27-.7,1.37,.48-18.88,5.33-37.76,10.65-56.63,16-2.4,.68-2.62,1.3-1.1,3.38,5.21,7.13,10.49,14.22,15.73,21.33,.8,1.09,1.54,2.23,2.3,3.35,.4,1.72-.63,1.18-1.47,.93Z"/><path class="cls-4" d="M291.98,290.57c-.77,2.03,0,4.02,.26,5.99,.51,4,.25,4.44-3.67,4.76-1.77,.14-3.55,.28-5.31,.52-1.7,.23-2.29-.64-2.44-2.14-.74-7.33-1.64-14.65-2.18-22.01-.73-10.08-1.17-20.16-.89-30.25,.24-8.55,.8-17.1,1.99-25.58,.08-.54-.44-1.91,1.11-1.18,1.72,.07,1.63,1.53,1.85,2.59,1.48,6.97,2.48,14.03,3.84,21.03,1.75,8.96,2.59,18.04,3.4,27.13-.13,1.51,.33,2.96,.5,4.44,.02,3.39,.53,6.73,1.1,10.06,.73,1.49,.41,3.09,.45,4.65Z"/><path class="cls-4" d="M390.91,467.01c-1.91-6.69-3.03-13.56-4.45-20.37-3.63-17.35-7.22-34.71-10.81-52.06-.19-.93-.39-1.83-1.08-2.53,.57-.73,1.36-.96,2.24-.96,4.89-.02,9.79-.3,14.68,.04,.11,.29,.08,.56-.09,.81-1.26,1.22-2.88,.78-4.36,.87-3.08,.18-3.78,.94-3.16,4.01,1.96,9.66,3.97,19.31,5.97,28.96,2.24,10.81,4.49,21.63,6.7,32.45,.41,2,1.06,3.93,1.5,5.92,.03,1.65-.51,3.22-2.07,3.71-1.69,.53-3.66,1.02-5.07-.85Z"/><path class="cls-10" d="M368.5,328.8c-.33-1.22-.65-2.44-.98-3.66-1.31-.26-1.36-1.45-1.58-2.37-1.54-6.27-2.66-12.64-3.96-18.96-.41-1.98,.3-3.03,2.31-3.07,1.86-.03,2.79-.83,3.27-2.45,5.83-.14,6.91,.62,8.24,6.22,1.68,7.07,3.27,14.16,4.85,21.26,.64,2.86,.5,2.99-2.51,3.01-3.21,.02-6.43,.02-9.64,.02Z"/><path class="cls-10" d="M391.31,391.5c.06-.13,.12-.25,.19-.37,3.79,.02,3.83,.01,4.67,3.72,5.16,22.83,10.31,45.67,15.45,68.5,.71,3.15,.55,3.39-2.6,4.19-12.95,3.3-26.08,5.35-39.45,5.68-1.8,.42-3.62,.12-5.43,.19-.46,.02-.81-.14-.72-.71,9.33-1.09,18.5-2.95,27.5-5.69,.76,.01,1.51,.04,2.27,.04,3.44-.04,3.45-.05,3.32-3.57,.68-.29,1.09,.11,1.54,.54,1.95,1.87,5.14,2.32,7.46,1.1,1.68-.88,1.43-2.3,1.12-3.76-1.36-6.48-2.89-12.92-4.31-19.39-2.59-11.77-5.2-23.53-7.86-35.28-1.14-5.04-2.46-10.04-3.14-15.18Z"/><path class="cls-10" d="M435.73,302.35c-4.99-.38-9.98-.73-14.97-1.16-.99-.09-2.07-.31-2.92-.8-10.02-5.88-20.56-10.89-29.77-18.09-.67-.52-1.79-.77-1.73-1.98,.25,.02,.51,.09,.76,.06,7.88-1.11,14.66,1.53,21.35,5.49,8.3,4.92,16.97,9.21,25.46,13.81,1.17,.64,2.26,1.43,3.39,2.16-.17,1.23-.94,.64-1.56,.52Z"/><path class="cls-9" d="M530.19,338.96c2.13-.85,4.36-.31,6.54-.43,1.2-.07,2.44-.02,3.29-1.02,3.81-4.45,9.15-6.92,13.63-10.52,8.1-6.5,14.02-14.58,18.77-23.69,1.38-2.65,2.61-5.29,3.15-8.23,0-.05,.16-.13,.19-.11,.13,.09,.24,.21,.35,.32-1.24,8.19-3.33,16.16-6.08,23.96-1.06,.82-1.38,2.1-1.8,3.24-2.11,5.71-6.48,9.81-10.18,14.36-1.11,1.36-2.8,1.98-4.74,1.98-4.47-.01-8.94-.27-13.41,.14-3.23,0-6.46,0-9.69,0Z"/><path class="cls-10" d="M318.37,385.54c-3.52-5.28-6.4-10.94-9.55-16.44-5.73-9.99-11.28-20.08-17.38-29.86-.8-1.29-1.69-2.52-2.54-3.78-.94-3.07-.65-3.36,2.73-3.62,2.67-.2,5.32-.61,7.97-.93,1.24,.8-.19,2.12,.58,3.01,4.3,14.95,9.45,29.6,15.83,43.81,1,2.22,1.75,4.57,2.97,6.7,.38,.7,.28,1.14-.63,1.12Z"/><path class="cls-4" d="M468.42,62.59c-3.82-.73-6.95-3.08-10.31-4.77-9.9-5-20.38-8.24-31.1-10.68-4.99-1.13-9.96-2.81-15.23-2.48-.73,.05-1.54-.34-2.01,.57-14.25-5.35-28.91-9.1-44.26-10.94,1-1.48,2.73,.22,3.42-1.23,.74-.06,1.47-.03,2.13,.4,3.88,.13,7.71,1.26,11.63,.59,4.74,.65,9.5,1.2,14.22,1.98,9.38,1.57,18.68,3.45,27.68,6.62,2.83,1.65,6.14,1.95,9.07,3.32,1.12,.52,2.27,1.04,3.57,.84,3.02,.92,5.94,2.09,8.76,3.5,1.96,1.85,4.6,2.44,6.94,3.49,5.09,2.29,9.94,4.99,14.86,7.58,.44,.23,.88,.55,.63,1.18Z"/><path class="cls-10" d="M289.47,271.62c-1.89-11.73-3.74-23.46-5.7-35.18-.88-5.27-1.96-10.51-2.95-15.76-.12-3.58-.06-3.68,3.55-3.55,2.68,.09,5.36,.19,7.96,.94-1.11,6.09-1.48,12.26-1.93,18.42-.74,10.01-.58,20.03-.42,30.05,0,1.71,.99,3.53-.51,5.09Z"/><path class="cls-4" d="M367.56,298.29c.47,.49,.98,.95,1.38,1.48,.44,.57,.52,1.28,.2,1.93-.38,.76-1.13,.59-1.8,.57q-4.42-.18-3.54,4.17c1.25,6.23,2.48,12.47,3.72,18.7-.39,1.15,.86,3.1-1.7,3.19-2.22,.08-3.96-.13-4.49-2.87-1.31-6.82-2.83-13.61-4.18-20.42-.55-2.76-1.44-5.23-3.99-6.77,4.8,0,9.59,.01,14.39,.02Z"/><path class="cls-9" d="M539.88,338.96c3.94-.93,7.95-.37,11.92-.37,2.47,0,4.16-.87,5.64-2.75,4.1-5.19,8.44-10.21,11.54-16.11,.22-.43,.54-.64,1.04-.48-1.58,5.6-3.64,11.02-5.85,16.39-.35,.84-.9,1.6-1.36,2.4-1.32,1.1-2.9,.66-4.39,.76-.92,.06-1.86-.19-2.76,.2-5.26,0-10.52-.01-15.77-.02Z"/><path class="cls-11" d="M365,219.22c11.52-.66,23.04-1.3,34.56-1.99,2.82-.17,3.03-.13,3.02,1.55-5.01-.43-9.97,.47-14.96,.51-4.99,.04-9.99,.31-14.98,.48-2.31,.37-4.63,.09-6.95,.15-.44,.01-.83-.1-.69-.7Z"/><path class="cls-19" d="M300.2,333.92c-.73-.9-.54-1.98-.58-3.01,4.56-1.01,9.24-1.06,13.86-1.45,5.05-.43,10.14-.46,15.21-.67,.86,.02,1.9-.95,2.48,.48-9.42,.51-18.8,1.44-28.15,2.66-1.27,.17-2.62,.28-2.82,1.99Z"/><path class="cls-15" d="M578.93,379.25c-.46-.16-.92-.32-1.37-.48,.37-1.43-.86-1.78-1.67-2.2-10.12-5.18-19.86-11.09-30.18-15.88-1.43-.66-3.03-.46-4.37-1.27,.88-.14,1.83,.11,2.61-.53,3.49,1.13,6.48,3.24,9.67,4.94,8.21,4.37,16.39,8.81,24.55,13.27,.72,.39,2.5,.73,.76,2.14Z"/><path class="cls-15" d="M468.42,62.59c-4.59-3.36-9.73-5.69-14.87-8.03-2.07-.94-4.21-1.73-6.24-2.73-.52-.26-1.77-.23-1.31-1.49,12.03,5.11,23.57,11.12,34.37,18.5,.34,.23,.62,.57,.92,.86-.19,.28-.39,.29-.62,.05-4.27-2.07-7.89-5.24-12.25-7.16Z"/><path class="cls-15" d="M550.02,143.19c-5.51-9.34-11.36-18.45-18.33-26.78-1.02-1.22-2.23-2.35-2.54-4.03,5,5.45,9.4,11.36,13.44,17.54,2.82,4.32,5.97,8.45,8.05,13.23-.2,.01-.41,.02-.61,.03Z"/><path class="cls-15" d="M567.99,180.92c-1.31-1.14-1.45-2.85-2.03-4.32-3.23-8.13-6.57-16.21-10.67-23.95-.46-.86-1.23-1.7-.68-2.83,4.83,9.12,9.12,18.47,12.61,28.18,.34,.95,.53,1.95,.78,2.92Z"/><path class="cls-7" d="M453.15,279.86c.85,1.87,2.56,1.5,4.1,1.57-.65,.51-1.42,.49-2.18,.49-7.59-.02-15.19-.05-22.78-.08,.32-.3,.63-.61,.95-.91,.72-1,1.78-1.24,2.91-1.24,5.67-.03,11.33-.27,16.99,.17Z"/><path class="cls-15" d="M519.56,101.85c-1.66-.49-2.27-2.27-3.71-3.05-4.76-4.46-9.52-8.92-14.28-13.38,2.38,.21,3.52,2.28,5.06,3.61,4.09,3.54,7.92,7.38,11.82,11.14,.47,.45,.75,1.11,1.11,1.68Z"/><path class="cls-18" d="M348.63,432.78c-2.74-3.59-5.39-7.24-7.76-11.09-.12-.5,.09-.67,.57-.55,2.55,3.23,5.1,6.46,7.65,9.69,.63,.83,1.03,1.61-.46,1.94Z"/><path class="cls-17" d="M365,219.22c2.49,1,5.11,.07,7.64,.55-5.53,.83-11.1,.28-16.64,.41-2.27,.05-4.55-.03-6.82-.06,.78-.42,1.62-.47,2.46-.41,4.47,.33,8.89-.7,13.36-.49Z"/><path class="cls-15" d="M558.17,449.23c-3.86-4.47-7.19-9.35-10.68-14.1-.26-.36-.26-.79-.04-1.2,3.59,4.89,7.19,9.77,10.78,14.65,.24,.24,.22,.45-.06,.64Z"/><path class="cls-12" d="M435.73,302.35c.52-.17,1.04-.34,1.56-.52,3.56,1.09,6.59,3.21,9.76,5.04-.56,.17-.71,.57-.58,1.1-3.63-1.78-6.77-4.5-10.74-5.63Z"/><path class="cls-15" d="M578.07,228.35c-.29-5.44-1.42-10.76-2.27-16.12-.15-.93-.37-1.84,.19-2.71,1.03,6.24,2.44,12.44,2.71,18.79-.21,.01-.42,.03-.64,.04Z"/><path class="cls-15" d="M437.25,46.84c-.23,.1-.5,.34-.69,.28-4.14-1.3-8.28-2.63-12.41-3.96-.01,0,0-.18,.04-.22,.12-.11,.27-.18,.41-.27,4.33,1.03,8.45,2.7,12.64,4.17Z"/><path class="cls-15" d="M558.17,449.23c.02-.21,.04-.43,.06-.64,3.23,3.68,5.84,7.82,8.7,11.78-.45,.16-.87,.06-1.11-.32-2.38-3.73-5.54-6.9-7.64-10.82Z"/><path class="cls-9" d="M331.17,329.27c-.83-.16-1.65-.32-2.48-.48,5.75-.79,11.5-.75,17.25-.03-4.92,.17-9.85,.34-14.77,.51Z"/><path class="cls-17" d="M341.44,421.15c-.19,.18-.38,.37-.57,.55-2.54-2.73-3.93-6.22-6.06-9.22-.23-.54,.02-.59,.46-.46,2.06,3.04,4.12,6.09,6.17,9.13Z"/><path class="cls-15" d="M291.53,285.92c-1.25-.37-.52-1.41-.64-2.1-.41-2.49-.66-5-.97-7.51,.55-.43-.1-1.32,.64-1.67,.57,3.74,.87,7.5,.96,11.28Z"/><path class="cls-8" d="M363.42,472.7c1.98,.94,4.12,.14,6.15,.53-4.91,.88-9.86,.38-14.8,.41,2.84-.71,5.77-.61,8.65-.93Z"/><path class="cls-15" d="M335.27,412.02c-.15,.15-.3,.31-.46,.46-1.8-2.84-4.26-5.29-5.09-8.69,2.32,2.43,3.72,5.47,5.55,8.23Z"/><path class="cls-15" d="M501.59,85.05c-3.08-1.16-5.03-3.86-7.68-5.6-.22-.25-.2-.49,.06-.7,2.8,1.79,5.54,3.65,7.62,6.3Z"/><path class="cls-4" d="M480.67,69.75c.21-.02,.41-.03,.62-.05,2.66,1.05,4.83,2.84,7.02,4.62-.05,.31-.22,.49-.54,.51-2.37-1.69-4.73-3.39-7.1-5.08Z"/><path class="cls-15" d="M382.7,34.06c-3.92,1.26-7.8-.37-11.71-.19-.02,0-.07-.14-.06-.2,.02-.07,.09-.13,.13-.2,3.9-.23,7.75,.5,11.63,.59Z"/><path class="cls-15" d="M487.77,74.83c.18-.17,.36-.34,.54-.51,1.95,1.39,4.08,2.55,5.66,4.42-.02,.23-.04,.47-.06,.7-2.05-1.54-4.09-3.07-6.14-4.61Z"/><path class="cls-17" d="M290.57,274.64c-.21,.56-.43,1.11-.64,1.67-.15-1.56-.3-3.12-.45-4.68,.81-1.63,.15-3.41,.51-5.09,.77,2.66,.31,5.41,.58,8.1Z"/><path class="cls-15" d="M329.73,403.8c-2.11-1.8-3.1-4.28-4.09-6.76,2.01,1.86,3.2,4.22,4.09,6.76Z"/><path class="cls-17" d="M537.77,424.23c.61-.11,1.24-.21,1.47-.93,1.42,1.03,2.11,2.65,3.21,3.94-1.92-.44-2.97-2.24-4.68-3.01Z"/><path class="cls-15" d="M525.67,108.49c-1.82-1.66-4.34-2.72-4.74-5.58,1.48,1.95,3.67,3.29,4.74,5.58Z"/><path class="cls-15" d="M324.25,394.12c-1.65-1.41-2.7-3.18-3.2-5.28,1.94,1.23,2.3,3.42,3.2,5.28Z"/><path class="cls-13" d="M318.37,385.54c.21-.37,.42-.75,.63-1.12,1.06,.96,1.63,2.14,1.54,3.59-1.39-.24-1.69-1.43-2.16-2.47Z"/><path class="cls-9" d="M555.65,338.98c2.3-.93,4.84-.07,7.15-.95-2.18,1.87-4.76,.69-7.15,.95Z"/><path class="cls-6" d="M172.69,280.82c1.33,6.32,2.67,12.65,4.01,18.97-1.71-.67-1.83-2.29-2.2-3.74-1.27-5-2-10.12-3.28-15.12-.46-2.8-.27-5.63-.4-8.45-.04-.78-.1-1.57-.2-2.34,0-.04-.01-.08-.02-.12-.56-5.26-1.32-10.51-1.22-15.82,.03-1.24-.12-2.6,1.19-3.42,.04,6.5,.42,12.97,1.02,19.44,.36,3.54,.73,7.08,1.1,10.61Z"/><path class="cls-6" d="M181.84,190.12c-1.82,3.33-2.42,7.1-3.63,10.64-1.38,6-2.79,11.99-4.12,18-.43,1.97-.67,3.98-.99,5.98-.52-3.62,.99-6.94,1.53-10.4,.72-4.59,2.03-9.06,3.08-13.58,.02-.1,.04-.2,.06-.3,.03-.15,.06-.31,.09-.46,.55-2.75,1.33-5.44,1.97-8.16,.23-.98,.58-2.03,2-1.72Z"/><path class="cls-6" d="M298.89,183.34c-.2,.82-.11,1.48,.26,2.16,5.85,.87,11.77,1.28,17.59,2.19,5.02,.78,10.03,1,15.05,1.37-10.9,.49-21.62-1.37-32.38-2.61-.16-.02-.3-.11-.44-.21-.06-.08-.12-.15-.18-.22-.06-.08-.12-.16-.17-.25-.06-.09-.11-.17-.16-.26-.18-.3-.33-.61-.44-.92h0c-.64-1.82-.12-3.71,.63-5.49,.42-1,.81-2,1.17-3.02,.84-2.35,1.54-4.75,2.14-7.18,.16-.65,.32-1.3,.47-1.95,0-.03-.01-.06-.01-.08-.11-.76,.1-1.38,.43-1.96,.31-.54,.7-1.05,1.01-1.6,.15-.27,.28-.55,.36-.85,.15-.52,.32-1.04,.5-1.55,.22-.66,.43-1.32,.56-2.01,.03-.36,.18-.66,.36-.96,.09-.16,.19-.32,.27-.49,.2-.44,.4-.89,.59-1.35,1.68-4.01,2.72-8.23,4.03-12.37,.04-.06,.08-.11,.12-.17,.51-.72,.97-1.45,1.38-2.21,1.7-3.02,2.82-6.31,4.15-9.51,5.16-12.37,11.78-23.96,18.81-35.34,3.3-5.33,6.71-10.6,10.48-15.61,.86-1.14,1.34-3.18,3.57-2.52-5.18,6.3-9.49,13.21-13.81,20.11-9.11,14.56-16.75,29.87-23.4,45.69-1.7,4.6-3.39,9.2-5.09,13.8-.15,.36-.3,.72-.45,1.07-.88,2.69-1.76,5.39-2.65,8.08-1.76,5.35-3.4,10.75-4.76,16.22Z"/><path class="cls-6" d="M257.29,177.85c-.3,.99-.91,1.4-1.92,1-1.29-.54-2.66-.76-4.02-.94-.54-.08-1.09-.15-1.63-.24-.04,0-.07-.01-.11-.02-2.56-.91-5.38-.48-7.91-1.57-5.32-2-10.86-3.25-16.28-4.88-8.88-2.66-17.58-5.84-26.35-8.81-1.35-.46-2.7-1.13-3.5-2.46-.03-.04-.05-.08-.07-.12-.13-.21-.2-.41-.24-.61-.09-.45,.02-.88,.2-1.31,.06-.14,.13-.29,.2-.42,.08-.14,.16-.29,.25-.42h0c.1-.17,.19-.34,.29-.5,.01-.01,.02-.02,.02-.04,.03-.05,.06-.1,.1-.15h0c2.01-3.32,4.41-6.39,6.15-9.88,.49-.97,1.09-1.89,1.59-2.86,.36-.29,.7-.59,1.04-.89t0,0c1.36-1.24,2.57-2.6,3.54-4.14,.59-.91,1.09-1.87,1.49-2.92,.04-.08,.07-.16,.1-.24l.03-.03c.49-.47,.98-.93,1.48-1.39,.95-.88,1.9-1.77,2.75-2.74h0c.71-.82,1.36-1.7,1.87-2.7,.07-.11,.12-.22,.17-.33,.1-.11,.19-.22,.3-.34,8.65-9.94,18.19-18.93,28.71-26.88,14.61-11.05,30.6-19.59,47.76-25.93,1.19-.44,2.51-1.41,3.67,.15-17.89,6.06-34.38,14.8-49.57,25.99-8.69,6.41-16.7,13.58-24.13,21.42-1.97,2.08-4.34,3.78-5.92,6.24-1.59,2.72-4.11,4.67-5.98,7.16-1.57,3.06-4.1,5.42-6.07,8.19-2.91,4.41-5.81,8.82-8.72,13.23-.15,.67-.31,1.34-.46,2.01,2.3,1.88,5.18,2.46,7.87,3.4,11.91,4.14,23.92,7.96,36.11,11.18,.64,.17,1.26,.45,1.89,.69,2.54,.53,5.1,1,7.53,1.96,.06,.02,.11,.04,.16,.06,2.53,.31,4.9,1.76,7.58,1.08Z"/><path class="cls-6" d="M448.53,174.29c-1.8-.06-1.8-1.63-2.13-2.75-2.07-7.01-4.11-14.02-6.51-20.92-8.48-24.4-19.44-47.62-33.2-69.51-.89-1.41-2.47-2.73-1.48-4.78,16.1,25.08,28.86,51.76,38,80.14,1.9,5.9,3.55,11.88,5.32,17.82Z"/><path class="cls-4" d="M436.29,57.5c.59-1.45,1.67-1.41,2.95-1.06,2.21,.6,4.29,1.59,6.42,2.39,8.95,3.32,17.91,6.75,26.05,11.82,4.29,2.67,8.57,5.43,12.77,8.27,3.17,2.14,6.43,4.27,9.26,6.73,4.53,3.94,9.85,7.25,12.59,12.97,.64,1.34,1.58,2.43,2.85,3.18,2.56,1.53,4.1,3.91,5.68,6.34,2.48,3.81,4.8,7.73,7.64,11.32,1.2,1.51,2.72,3.13,2.19,5.44-.02,.08-.05,.22,0,.25,2.54,2.03,1.94,5.32,2.92,7.94,1.23,3.28,3.8,5.89,3.94,9.85,.14,4.15,.79,8.36,1.23,12.54,.03,.25,.12,.62,0,.73-2.4,2.22-1.14,5.3-1.82,7.92-.34,1.32-1.02,1.08-1.85,1-3.35-7.34-6.65-14.7-10.4-21.85-7.16-13.68-15.88-26.3-25.8-38.11-10.42-12.41-22.17-23.41-34.97-33.31-6.86-5.31-14.23-9.86-21.65-14.34Z"/><path class="cls-10" d="M448.53,174.29c-1.93,2.19-7.7,3.7-10.23,2.69-1.32,.16-1.49-.86-1.77-1.74-4.23-13.2-9.27-26.08-15.07-38.68-7.73-16.78-16.79-32.79-27.4-47.93-3.52-5.03-7.33-9.86-10.61-15.06-.27-.43-.58-.8-.57-1.33-.21-1.24-2.36-2.03-1.49-3.14,.86-1.1,2.71-.39,4.11-.19,5.47,.79,10.74,2.32,15.88,4.34,1.63,.64,3.02,1.48,3.83,3.08,16.1,25.08,28.86,51.76,38,80.14,1.9,5.9,3.55,11.88,5.32,17.82Z"/><path class="cls-4" d="M382.88,72.24c7.6,8.42,13.98,17.75,20,27.32,14.56,23.14,25.89,47.79,34.35,73.78,.39,1.2,.71,2.43,1.07,3.64-.16,1.34-1.27,1.46-2.24,1.69-2.56,.61-5.16,1.07-7.69,1.77-2.19,.61-3.05-.22-3.5-2.31-2.8-13.05-6.69-25.8-11.07-38.4-7.79-22.45-17.84-43.85-30.09-64.22-.52-.87-1.09-1.73-1.52-2.65-.3-.64,.24-.64,.69-.62Z"/><path class="cls-15" d="M453.15,279.86c-.66,1.23-1.84,1.02-2.92,1.03-5.66,.03-11.33,.03-16.99,.05,.23-12.79-.47-25.57-.68-38.35-.13-7.78-.15-15.57-.37-23.36-.03-1.18-.34-2.35-.38-3.53-.03-.81-.62-1.99,.94-2.14,1.76,.28,2.46,1.69,3.11,3.06,6.7,14.05,12.16,28.57,16.32,43.58,.39,1.42,1.09,2.94-.06,4.38,.48,5.08,.97,10.17,1.02,15.28Z"/><path class="cls-10" d="M452.12,264.58c-2.87-10.03-5.89-20.01-9.75-29.72-2.88-7.25-5.91-14.42-9.62-21.29-.03-1.3,.58-2.02,1.9-2.11,3.22,1.15,6.55,.39,9.83,.57,1.86,.1,3.73,0,5.59,.06,2.03,.07,3.07,1.08,3.06,3.21-.02,4.07-.13,8.15,.15,12.2,.58,8.36,0,16.74,.75,25.1,.34,3.78,.08,7.62,.07,11.43,0,.59-.03,1.3-.67,1.53-.77,.27-.9-.59-1.31-.96Z"/><path class="cls-10" d="M349.04,78.37c-5.18,6.3-9.49,13.21-13.81,20.11-9.11,14.56-16.75,29.87-23.4,45.69-.74-.02-1.07-.26-1.2-.61-.16-.44,0-1.03,.11-1.51,.52-2.36,1.11-4.71,1.93-7,2.49-7.03,4.87-14.11,7.21-21.2,.42-.77,.81-1.54,1.17-2.32,.52-1.11,.99-2.25,1.44-3.39,2.01-5.2,3.39-10.65,5.64-15.78,3.83-8.69,6.79-17.79,12.26-25.69,.82-1.11,1.6-1.08,2.4,.05,2.16,3.04,4.3,6.1,6.52,9.09q.78,1.04-.27,2.56Z"/><path class="cls-10" d="M300.64,72.06c-.76,1.58-1.76,2.88-3.64,3.17-17.89,6.06-34.38,14.8-49.57,25.99-8.69,6.41-16.7,13.58-24.13,21.42-1.97,2.08-4.34,3.78-5.92,6.24-.45-.12-.78-.21-.99-.31-.15-.07-.24-.14-.29-.24-.12-.25,.08-.63,.53-1.42,.59-1.06,1.18-2.12,1.76-3.18,1.28-2.34,2.51-4.71,3.7-7.1,9.08-9.97,19.48-18.37,30.76-25.72,14.32-9.34,29.79-16.17,46.2-20.88,.7-.2,1.58-.83,2.14-.2,.7,.78-.2,1.53-.55,2.25Z"/><path class="cls-4" d="M285.88,431.79c-.23,1.64-1.18,.69-1.81,.44-9.34-3.66-18.25-8.17-26.86-13.33-14.69-8.8-27.39-19.99-38.92-32.53-7.53-8.19-14.07-17.19-20.06-26.58-.37-.57-1.18-1.23-.08-1.9,2.1-.86,3.09,.91,4.12,2,.28,.3,.55,.59,.82,.89,1.36,1.5,2.64,3.08,3.76,4.78,.33,.26,.65,.53,.98,.79,1.09,1.55,2.52,2.81,3.6,4.36,2.66,3.74,6.49,6.42,9.11,10.2-.06,.17-.09,.37,.02,.49,4.09,4.41,8.34,8.67,12.76,12.76,.12,.11,.32,.07,.49,0,1.46,1.08,2.98,2.08,4.12,3.53,.7,1.35,1.9,2.2,3.08,3.06,.09,.07,.18,.13,.27,.2,0,0,.02,.01,.02,.02,1.92,1.69,3.98,3.19,5.89,4.87,.08,.07,.15,.13,.23,.2t.01,.01c3.12,2.36,6.2,4.76,9.44,6.96,.16,.11,.33,.22,.5,.33,.11,.08,.22,.15,.33,.22,2.08,1.41,4.17,2.81,6.28,4.17,.06,.04,.12,.08,.18,.11,6.27,4.05,12.69,7.84,19.37,11.21,1.09,.55,2.77,.8,2.38,2.73Z"/><path class="cls-17" d="M297.58,145.73c2.28-5.85,4.56-11.7,6.83-17.56,.28-.73,.68-1.37,1.32-1.83,1.85,.4,1.65,1.94,1.73,3.25,.3,5.46-.44,10.85-1.18,16.23-1.71,12.51-4.63,24.78-7.7,37-.29,1.16,.28,2.38-.46,3.43-1.27,.5-2.47,.47-3.55-.47-1.15-2.05-.39-4.16-.11-6.2,1.13-8.04,2.01-16.1,1.86-24.24-.06-3.27,.5-6.46,1.25-9.62Z"/><path class="cls-17" d="M322.65,107.65c-.06,.16-.11,.32-.15,.48-.61,1.99-.8,4.06-1.42,6.04-2.39,7.11-4.79,14.21-7.16,21.33-.65,1.94-1.26,3.9-1.89,5.85-.09,.3-.19,.59-.29,.89-.21,.66-.36,1.31,.1,1.93-1.7,4.6-3.39,9.2-5.09,13.8-.52,.09-.88,.07-1.12-.03-.75-.31-.43-1.37-.36-2.16,.32-3.9,1.48-7.62,2.35-11.41,2.24-9.71,4.7-19.4,5.07-29.44,.06-1.64,.28-3.29,.71-4.9,2.74-5.78,5.83-11.37,9.19-16.81,1.03,.47,1.11,1.42,1.16,2.35,.24,4.08,.25,8.16-1.09,12.08Z"/><path class="cls-17" d="M312.51,127.65c-1.33,7.49-2.95,14.93-4.95,22.29-.54,2-1.17,4.05-1.08,6.16,.02,.62,.1,1.24,.27,1.86-.15,.36-.3,.72-.45,1.07-1.72,2.42-2.3,5.21-2.65,8.08-1.76,5.35-3.4,10.75-4.76,16.22-.2,.82-.11,1.48,.26,2.16-.09,.23-.21,.41-.37,.51-.14,.1-.33,.13-.55,.06-.05-.01-.09-.03-.14-.05-.05-.49-.08-.96-.08-1.44h0c0-.61,.06-1.22,.22-1.83,.61-2.21,1.12-4.44,1.58-6.68,1.28-6.22,2.12-12.52,3.33-18.75,1.3-6.73,2.26-13.53,2.87-20.37,.32-3.55,.56-7.1-.28-10.62,2.26-5.57,4.39-11.21,7.66-16.31,1.34,5.95,.16,11.81-.87,17.62Z"/><path class="cls-14" d="M297.58,145.73c.53,13.35-.53,26.6-2.55,39.79-2.04,1.21-6.77-.77-8.46-.91,1.81-6.07,2.85-11.55,4.28-17.69,1.69-7.25,4.05-14.26,6.73-21.19Z"/><path class="cls-17" d="M321.07,114.17c-.13-2.04,.02-4.06,.49-6.05,1.15-4.91,1.05-9.91,1.01-14.91,4.93-8.42,10.27-16.57,15.95-24.5,.54-.76,1.04-1.56,1.88-2.04-3.07,7.25-6.24,14.46-9.17,21.76-3.1,7.7-5.97,15.49-8.95,23.24-.33,.86-.79,1.67-1.2,2.51Z"/><path class="cls-4" d="M183.4,327.45c-.95,.35-1.44-.17-1.77-.95-.3-.7-.62-1.39-.87-2.11-5.93-16.86-10.29-34.07-11.8-51.95-.19-2.28-.44-4.55-.41-6.84,1.32-.15,1.57,.54,1.65,1.73,.07,.9,.2,1.8,.38,2.69,.14,.72,.32,1.42,.51,2.13,.02,.07,.04,.15,.06,.22,.02,.06,.04,.13,.06,.19,.87,2.69,.33,5.63,1.47,8.27,1.33,6.32,2.67,12.65,4.01,18.97-.56,.79-.33,1.6-.1,2.44,2.07,7.35,4.33,14.64,7.14,21.75,.19,.47,.39,.94,.55,1.42,.31,.94,.12,1.67-.89,2.05Z"/><path class="cls-10" d="M256.73,339.96c-11.54,2.38-22.89,5.47-34.13,8.97-5.9,1.83-11.75,3.87-17.6,5.84-3.95,1.33-3.9,1.34-1.57,4.93,1.23,1.89,3.04,3.46,3.42,5.86-.55-.41-1.08-.85-1.6-1.31-2.38-2.1-4.46-4.54-7.1-6.36-1.6-1.88-.09-2.51,1.3-3.02,6.07-2.2,12.13-4.44,18.25-6.49,12.18-4.08,24.55-7.46,37.1-10.18,.41-.09,.83-.19,1.25-.25,.75-.11,1.6-.39,1.89,.67,.28,1.02-.77,.92-1.22,1.33Z"/><path class="cls-10" d="M298.04,436.12c-.61,.6-1.45,.03-2.12-.25-2.49-1.02-4.95-2.1-7.44-3.14-.85-.35-1.73-.63-2.6-.95-9.49-4.85-18.75-10.08-27.28-16.52-.47-.36-.91-.76-1.36-1.13-.29-.31-.65-.66-.42-1.08h0s.02-.04,.03-.06c.25-.38,.67-.31,1.06-.07,9.06,5.48,18.34,10.55,28.1,14.7,2.65,1.12,5.35,2.13,8.02,3.19,1.39,.81,3.3,.95,3.71,2.99,.16,.78,1.05,1.57,.31,2.3Z"/><path class="cls-4" d="M251.66,178.43c-.2,1.61-1.26,.73-1.9,.57-16.1-3.82-31.94-8.52-47.43-14.36-3.09-1.16-6.18-2.33-9.27-3.52-.6-.23-1.39-.25-1.56-1.11,1.12-1.4,2.43-1.24,3.77-.82,.29,.09,.58,.18,.87,.28,2.3,1.88,5.18,2.46,7.87,3.4,11.91,4.14,23.92,7.96,36.11,11.18,.64,.17,1.26,.45,1.89,.69,2.14,1.07,4.55,1.28,6.77,2.11,.06,.02,.11,.04,.16,.06,.07,.06,.14,.11,.22,.15,.66,.38,1.62,.25,2.18,.83,.13,.13,.23,.31,.31,.53Z"/><path class="cls-15" d="M171.46,270.42c-.3,.66,.12,1.48-.25,2.12-.04,.07-.08,.13-.14,.19-.1-.09-.18-.17-.27-.27-.99-1.08-1.05-2.51-1.21-3.88-.13-1.1-.25-2.16-1.05-3.01-.87-7.53-.69-15.07-.13-22.61,.23-3.13,.41-6.26,.65-9.39,.09-1.09,.3-2.17,.73-3.24,.37,3.78,1.02,7.51,.68,11.34-.26,3.01-1,6.06,.08,9.08,.04,6.5,.42,12.97,1.02,19.44-.05,.07-.09,.14-.13,.21Z"/><path class="cls-17" d="M211.58,132.44c-.43,.98-.85,1.97-1.3,2.95-.04,.09-.08,.18-.12,.27-.45,.99-.94,1.97-1.49,2.92-.61,1.07-1.31,2.1-2.13,3.06-.62,.73-1.51,1.41-1.22,2.6-2.91,4.41-5.81,8.82-8.72,13.23-.29,.44-.65,.8-1.13,.42-.02-.02-.05-.04-.07-.06-.67-.63-.39-1.35-.1-2.09,1.28-3.2,2.92-6.23,4.55-9.25,.86-1.59,1.9-3.07,2.31-4.87,2.6-4.13,5.23-8.25,8.66-11.79,1.34,.55,1.19,1.61,.76,2.61Z"/><path class="cls-15" d="M331.79,189.05c-2.56,.82-5.21,.65-7.8,.49-11.45-.74-22.88-1.7-34.27-3.06-.49-.06-1.12-.16-1.37-.48-.3-.4,.29-.4,.57-.49,1.84,0,3.69,0,5.53,0h.59c.97,.46,2.01,.52,3.06,.51,.08-.04,.15-.08,.22-.11,.1-.05,.2-.1,.3-.15,.18-.09,.36-.18,.54-.27,5.85,.87,11.77,1.28,17.59,2.19,5.02,.78,10.03,1,15.05,1.37Z"/><path class="cls-17" d="M195.92,157.03c-.06,.21,.06,.39,.68,.43-.15,.67-.31,1.34-.46,2.01-.18,.19-.37,.34-.56,.45-1.28,.73-2.76-.32-4.08,.09-.14-1.46,.68-2.57,1.36-3.72,2.96-4.98,5.59-10.17,9.31-14.67,.75,1.83-.44,3.26-1.09,4.73-1.49,3.38-3.16,6.66-4.74,9.99h0c-.04,.06-.07,.11-.1,.16,0,.02-.01,.03-.02,.04-.11,.16-.25,.34-.29,.5h0Z"/><path class="cls-17" d="M218.38,123.72c-.15,.4-.38,.8-.59,1.2-.58,1.12-1.13,2.27-1.7,3.4-.5,1-1.02,1.98-1.59,2.93h0c-.74,1.23-1.56,2.4-2.56,3.46-.25,.27-.53,.54-.58,.9-.03,.12-.02,.27,.03,.42-1.57,3.06-4.1,5.42-6.07,8.19-.4-.57-.38-1.06-.2-1.52t0,0c.18-.42,.5-.81,.76-1.2,1.76-2.68,3.08-5.59,4.45-8.48,.49-1.02,.58-2.09,.5-3.2,1.84-3.01,4.19-5.62,6.67-8.12,1.1,.59,1.15,1.29,.89,2.01Z"/><path class="cls-17" d="M218.04,126.14c-.32,.56-1.17,1.06-1.18,1.76,0,.29,.14,.61,.52,.98-1.59,2.72-4.11,4.67-5.98,7.16-.02-.14-.03-.28-.03-.42-.02-.61,.15-1.13,.4-1.62,.47-.92,1.26-1.71,1.74-2.62,1.62-3.11,3.97-5.9,4-9.67,1.47-1.75,2.77-3.66,4.59-5.09,.37,3.91-2.32,6.5-4.04,9.52Z"/><path class="cls-20" d="M181.84,190.12c-1.82,3.33-2.42,7.1-3.63,10.64-.18-.1-.32-.19-.43-.3-.3-.28-.4-.59-.4-.91h0c0-.37,.12-.75,.23-1.12h0c.06-.23,.12-.46,.14-.68,.31-2.32,.61-4.63,.92-6.95,.11-.8-.08-1.83,1.04-2.01,1-.16,1.79,.29,2.13,1.33Z"/><path class="cls-9" d="M178.21,200.76c-1.38,6-2.79,11.99-4.12,18-.43,1.97-.67,3.98-.99,5.98-.46-.77-.56-1.62-.38-2.46,1.54-7.58,3.1-15.16,4.66-22.74h0c.08-.38,.15-.75,.23-1.12h0c.05-.23,.09-.45,.14-.68,.08,.74-.06,1.52,.12,2.25,.06,.27,.17,.52,.34,.77Z"/><path class="cls-5" d="M257.29,179.86c-.52,.49-1.1,.14-1.63-.04-1.33-.45-2.66-.92-3.99-1.39-.64-.26-1.29-.52-1.94-.77-.31-.12-.63-.25-.94-.37-.02-.19-.02-.33,.01-.43,.09-.35,.4-.28,.76-.15,.06,.02,.11,.04,.16,.06,2.53,.31,4.9,1.76,7.58,1.08,.44,.67,.7,1.36,0,2.01Z"/><path class="cls-10" d="M492.87,395.64c3.34,.79,6.74,.53,10.12,.49,2.56-.03,5.05,.43,7.56,.76,1.49,.2,2.58,.94,3.56,2.16,2.49,3.1,4.94,6.2,6.93,9.67,1.47,2.57,3.21,4.97,5.41,7.01,1,.93,1.92,2.2,1.15,3.59-.69,1.24-2.11,.81-3.25,.59-1.35-.25-2.68-.35-4.04-.24-2.1,.13-3.73-.84-5.27-2.14-7.5-6.35-14.86-12.88-22.71-18.81q-1.94-2.28,.55-3.09Z"/><path class="cls-17" d="M450.64,428.33c-6.19,16.22-12.27,32.49-19.05,48.48-.39,.92-.55,1.95-.81,2.92-3.05,.03-6.11,.09-9.16,.07-2.41-.02-2.62-.38-1.36-2.45,5.12-8.4,10.27-16.78,15.4-25.17,4.51-7.38,9.01-14.77,13.51-22.16,.4-.65,.73-1.35,1.47-1.7Z"/><path class="cls-10" d="M391.31,391.5c2.17,1.41,1.9,3.88,2.4,5.93,1.49,6.17,2.73,12.4,4.11,18.6,2.75,12.33,5.53,24.66,8.3,36.98,.76,3.39,1.5,6.79,2.32,10.17,.49,2.01-.19,3.12-2.26,3.36-1.43,.17-2.86,.5-4.29,.48-4.86-.06-3.98,.51-5.38-3.55-2.33-10.94-4.68-21.87-6.98-32.82-2.38-11.36-4.71-22.74-7.06-34.11-.19-.91-.36-1.83-.53-2.75-.3-1.6,.29-2.41,2-2.37,2.46,.06,4.91,.05,7.37,.07Z"/><path class="cls-15" d="M172.69,280.82c-.02,.08-.03,.17-.06,.25-.09,.2-.35,.54-.4,.17-.43-2.82-.77-5.66-1.14-8.49,.01-.2,.02-.4,.02-.6,.02-.59,.08-1.17,.36-1.72,.04-.07,.08-.14,.13-.21,.36,3.54,.73,7.08,1.1,10.61Z"/><path class="cls-17" d="M306.29,159.04c-.88,2.69-1.76,5.39-2.65,8.08-.04-1.3-.04-2.59,.19-3.81,.16-.84,.42-1.65,.86-2.41,.38-.67,.9-1.29,1.59-1.86Z"/><path class="cls-9" d="M249.71,176.77c-.18,.1-.36,.2-.54,.3-.13,.07-.26,.15-.39,.22-2.21-.98-4.8-.93-6.76-2.54,2.54,.53,5.1,1,7.53,1.96,.06,.02,.11,.04,.16,.06Z"/><path class="cls-18" d="M257.9,412.93c-.28,.09-.46,.22-.56,.4-.02,.03-.04,.06-.05,.08-.09,.2-.1,.44-.06,.72-3.25-1.98-6.1-4.47-8.99-6.91-.37-.31-.73-.61-1.1-.92-.05-.2-.05-.37,.02-.47,.07-.12,.23-.16,.52-.07,3.41,2.39,6.81,4.78,10.22,7.17Z"/><path class="cls-15" d="M233.79,394.15c-.92,.45-1.41-.25-1.94-.76-3.53-3.51-7.05-7.02-10.55-10.55-.52-.52-1.21-1.02-.77-1.94,4.42,4.41,8.84,8.83,13.26,13.25Z"/><path class="cls-17" d="M247.68,405.77c-.09,.1-.18,.19-.28,.28-.09,.09-.17,.17-.26,.26-2.04-1.69-4.09-3.38-6.13-5.07h0c-.08-.24-.11-.41-.03-.49,.07-.07,.21-.07,.46,.03,2.08,1.66,4.15,3.32,6.23,4.99Z"/><path class="cls-15" d="M241.45,400.78c-.06,.06-.12,.13-.18,.19-.09,.09-.17,.18-.26,.27h0c-1.02-1.18-3.15-1.41-3.11-3.54,1.18,1.03,2.36,2.06,3.54,3.09Z"/></g></g></svg>